<svg width="982" height="128" viewBox="0 0 982 128" fill="none" xmlns="http://www.w3.org/2000/svg">
<path fill-rule="evenodd" clip-rule="evenodd" d="M128.494 127.9C163.613 127.9 192.082 99.4304 192.082 64.3114C192.082 29.1925 163.613 0.722931 128.494 0.722931C104.865 0.722931 84.2458 13.6112 73.2833 32.7414C66.404 29.2138 58.6064 27.2233 50.3439 27.2233C22.5397 27.2233 0 49.7631 0 77.5672C0 105.371 22.5397 127.911 50.3439 127.911C64.6774 127.911 77.6119 121.921 86.7806 112.307C97.9461 122.02 112.533 127.9 128.494 127.9ZM86.7806 112.307C95.3972 103.273 100.688 91.0378 100.688 77.5672C100.688 58.0256 89.5537 41.0844 73.2833 32.7414C67.9528 42.0436 64.9054 52.8216 64.9054 64.3114C64.9054 83.4698 73.378 100.649 86.7806 112.307Z" fill="#09C1BF"/>
<path fill-rule="evenodd" clip-rule="evenodd" d="M128.494 127.9C163.613 127.9 192.082 99.4304 192.082 64.3114C192.082 29.1925 163.613 0.722931 128.494 0.722931C104.865 0.722931 84.2458 13.6112 73.2833 32.7414C66.404 29.2138 58.6064 27.2233 50.3439 27.2233C22.5397 27.2233 0 49.7631 0 77.5672C0 105.371 22.5397 127.911 50.3439 127.911C64.6774 127.911 77.6119 121.921 86.7806 112.307C97.9461 122.02 112.533 127.9 128.494 127.9ZM86.7806 112.307C95.3972 103.273 100.688 91.0378 100.688 77.5672C100.688 58.0256 89.5537 41.0844 73.2833 32.7414C67.9528 42.0436 64.9054 52.8216 64.9054 64.3114C64.9054 83.4698 73.378 100.649 86.7806 112.307Z" fill="#09C1BF"/>
<path d="M314.885 72.2013C314.175 78.7302 311.869 84.514 307.966 89.5527C304.133 94.5203 299.095 98.388 292.85 101.156C286.605 103.923 279.472 105.307 271.453 105.307C262.511 105.307 254.669 103.569 247.928 100.091C241.186 96.6139 235.934 91.7881 232.173 85.614C228.412 79.3689 226.531 72.1303 226.531 63.8982C226.531 55.666 228.412 48.4629 232.173 42.2888C235.934 36.0437 241.186 31.1825 247.928 27.7051C254.669 24.2277 262.511 22.489 271.453 22.489C279.472 22.489 286.605 23.8729 292.85 26.6406C299.095 29.4083 304.133 33.276 307.966 38.2437C311.869 43.2113 314.175 48.9951 314.885 55.5951H300.727C299.946 51.337 298.243 47.6823 295.617 44.6307C293.063 41.5791 289.727 39.2372 285.611 37.605C281.495 35.9018 276.74 35.0502 271.347 35.0502C265.102 35.0502 259.673 36.2211 255.06 38.563C250.518 40.9049 247.005 44.2404 244.521 48.5693C242.037 52.8983 240.795 58.0079 240.795 63.8982C240.795 69.7884 242.037 74.898 244.521 79.227C247.005 83.556 250.518 86.8914 255.06 89.2333C259.673 91.5752 265.102 92.7462 271.347 92.7462C276.74 92.7462 281.495 91.93 285.611 90.2978C289.727 88.6656 293.063 86.3237 295.617 83.2721C298.243 80.1496 299.946 76.4593 300.727 72.2013H314.885ZM323.306 43.5662H337.145L340.764 65.4949V103.817H326.925V62.8337L323.306 43.5662ZM371.315 43.1404V55.2757C369.754 54.8499 368.051 54.5306 366.205 54.3176C364.36 54.1047 362.622 53.9983 360.989 53.9983C357.086 53.9983 353.609 54.8499 350.557 56.5531C347.506 58.2563 345.093 60.8111 343.319 64.2175C341.615 67.553 340.764 71.669 340.764 76.5657L337.57 72.6271C337.854 68.3691 338.564 64.3949 339.699 60.7047C340.906 56.9434 342.538 53.6789 344.596 50.9112C346.725 48.1435 349.315 45.9791 352.367 44.4178C355.418 42.8565 358.967 42.0759 363.012 42.0759C364.431 42.0759 365.886 42.1823 367.376 42.3952C368.867 42.5372 370.18 42.7855 371.315 43.1404ZM394.506 122.872C390.958 122.872 387.729 122.41 384.819 121.488C381.981 120.636 379.319 119.43 376.835 117.868V107.33C379.532 109.033 382.087 110.275 384.5 111.056C386.984 111.836 389.751 112.227 392.803 112.227C395.713 112.227 398.303 111.552 400.574 110.204C402.845 108.927 404.725 106.656 406.216 103.391L433.361 43.5662H448.051L416.861 108.075C415.158 111.623 413.135 114.462 410.793 116.591C408.522 118.791 406.003 120.388 403.235 121.381C400.538 122.375 397.629 122.872 394.506 122.872ZM401.425 101.901L373.748 43.5662H388.971L415.158 101.901H401.425ZM456.124 43.5662H469.963V64.5369L469.324 66.6659V78.8012L469.963 82.5269V121.381H456.124V43.5662ZM464.64 73.6916C465.989 67.3046 468.224 61.7692 471.347 57.0854C474.469 52.3306 478.301 48.6403 482.843 46.0145C487.456 43.3888 492.566 42.0759 498.172 42.0759C504.062 42.0759 509.278 43.4242 513.82 46.121C518.362 48.7468 521.91 52.437 524.465 57.1918C527.02 61.8756 528.297 67.3755 528.297 73.6916C528.297 79.9367 527.02 85.4366 524.465 90.1914C521.91 94.9461 518.362 98.6719 513.82 101.369C509.278 103.994 504.062 105.307 498.172 105.307C492.566 105.307 487.492 103.994 482.95 101.369C478.408 98.7429 474.54 95.0526 471.347 90.2978C468.224 85.543 465.989 80.0076 464.64 73.6916ZM514.246 73.6916C514.246 69.6465 513.394 66.0981 511.691 63.0466C510.059 59.924 507.788 57.5112 504.878 55.808C501.969 54.0338 498.633 53.1467 494.872 53.1467C491.111 53.1467 487.563 54.0338 484.227 55.808C480.963 57.5112 478.088 59.924 475.605 63.0466C473.121 66.0981 471.098 69.6465 469.537 73.6916C471.098 77.7367 473.121 81.3205 475.605 84.4431C478.088 87.4946 480.963 89.9075 484.227 91.6817C487.563 93.3849 491.111 94.2365 494.872 94.2365C498.633 94.2365 501.969 93.3849 504.878 91.6817C507.788 89.9075 510.059 87.4946 511.691 84.4431C513.394 81.3205 514.246 77.7367 514.246 73.6916ZM532.06 54.2112V47.9306L544.94 44.6307L550.689 27.8116H558.779V43.5662H586.775V54.2112H558.779V80.2915C558.779 85.3301 559.843 88.8785 561.972 90.9365C564.172 92.9236 567.721 93.9171 572.617 93.9171C575.74 93.9171 578.508 93.5978 580.92 92.9591C583.333 92.2494 585.64 91.2559 587.84 89.9785V101.369C585.995 102.291 583.369 103.178 579.962 104.03C576.627 104.881 573.185 105.307 569.637 105.307C563.746 105.307 558.992 104.349 555.372 102.433C551.753 100.446 549.092 97.7493 547.389 94.3429C545.756 90.8655 544.94 86.8914 544.94 82.4205V54.2112H532.06ZM629.159 105.307C621.849 105.307 615.427 103.994 609.892 101.369C604.427 98.6719 600.134 94.9461 597.011 90.1914C593.959 85.4366 592.434 79.9367 592.434 73.6916C592.434 67.3755 593.959 61.8756 597.011 57.1918C600.134 52.437 604.427 48.7468 609.892 46.121C615.427 43.4242 621.849 42.0759 629.159 42.0759C636.469 42.0759 642.856 43.4242 648.32 46.121C653.855 48.7468 658.149 52.437 661.201 57.1918C664.323 61.8756 665.884 67.3755 665.884 73.6916C665.884 79.9367 664.323 85.4366 661.201 90.1914C658.149 94.9461 653.855 98.6719 648.32 101.369C642.856 103.994 636.469 105.307 629.159 105.307ZM629.159 94.4494C633.843 94.4494 637.852 93.5978 641.188 91.8946C644.594 90.1914 647.22 87.814 649.065 84.7624C650.91 81.6399 651.833 77.9496 651.833 73.6916C651.833 69.4336 650.91 65.7788 649.065 62.7272C647.22 59.6047 644.594 57.1918 641.188 55.4886C637.852 53.7854 633.843 52.9338 629.159 52.9338C624.546 52.9338 620.537 53.7854 617.13 55.4886C613.724 57.1918 611.098 59.6047 609.253 62.7272C607.408 65.7788 606.485 69.4336 606.485 73.6916C606.485 77.9496 607.408 81.6399 609.253 84.7624C611.098 87.814 613.724 90.1914 617.13 91.8946C620.537 93.5978 624.546 94.4494 629.159 94.4494ZM755.337 64.2175L756.72 61.1305C763.036 61.2014 768.182 62.1595 772.156 64.0046C776.201 65.8498 779.146 68.3336 780.991 71.4561C782.907 74.5787 783.865 78.0915 783.865 81.9947C783.865 86.2527 782.836 90.0139 780.778 93.2784C778.791 96.5429 775.846 99.1332 771.943 101.049C768.04 102.894 763.178 103.817 757.359 103.817H704.134L710.415 62.8337L704.134 23.9793H755.443C762.824 23.9793 768.501 25.718 772.475 29.1954C776.52 32.6018 778.543 37.3211 778.543 43.3533C778.543 46.5468 777.762 49.6693 776.201 52.7209C774.711 55.7015 772.262 58.2563 768.856 60.3853C765.52 62.4433 761.014 63.7208 755.337 64.2175ZM718.292 99.8783L712.863 92.5333H755.762C760.162 92.5333 763.569 91.5397 765.982 89.5527C768.465 87.4946 769.707 84.585 769.707 80.8237C769.707 76.8496 768.253 73.7626 765.343 71.5626C762.504 69.3626 758.282 68.2626 752.675 68.2626H718.079V57.4047H751.291C755.053 57.4047 758.175 56.3757 760.659 54.3176C763.143 52.1886 764.385 49.1726 764.385 45.2694C764.385 42.3597 763.356 39.9824 761.298 38.1372C759.24 36.2211 756.259 35.2631 752.356 35.2631H712.863L718.292 27.918L723.934 62.8337L718.292 99.8783ZM795.434 21.8503H809.273V103.817H795.434V21.8503ZM857.237 105.307C849.927 105.307 843.505 103.994 837.969 101.369C832.505 98.6719 828.211 94.9461 825.089 90.1914C822.037 85.4366 820.512 79.9367 820.512 73.6916C820.512 67.3755 822.037 61.8756 825.089 57.1918C828.211 52.437 832.505 48.7468 837.969 46.121C843.505 43.4242 849.927 42.0759 857.237 42.0759C864.546 42.0759 870.933 43.4242 876.398 46.121C881.933 48.7468 886.227 52.437 889.278 57.1918C892.401 61.8756 893.962 67.3755 893.962 73.6916C893.962 79.9367 892.401 85.4366 889.278 90.1914C886.227 94.9461 881.933 98.6719 876.398 101.369C870.933 103.994 864.546 105.307 857.237 105.307ZM857.237 94.4494C861.921 94.4494 865.93 93.5978 869.266 91.8946C872.672 90.1914 875.298 87.814 877.143 84.7624C878.988 81.6399 879.911 77.9496 879.911 73.6916C879.911 69.4336 878.988 65.7788 877.143 62.7272C875.298 59.6047 872.672 57.1918 869.266 55.4886C865.93 53.7854 861.921 52.9338 857.237 52.9338C852.624 52.9338 848.614 53.7854 845.208 55.4886C841.802 57.1918 839.176 59.6047 837.331 62.7272C835.486 65.7788 834.563 69.4336 834.563 73.6916C834.563 77.9496 835.486 81.6399 837.331 84.7624C839.176 87.814 841.802 90.1914 845.208 91.8946C848.614 93.5978 852.624 94.4494 857.237 94.4494ZM959.926 89.0204V78.3754L960.459 76.4593V64.8562L959.926 62.7272V43.5662H973.765V87.743C973.765 95.4784 972.133 101.936 968.868 107.117C965.604 112.368 961.133 116.307 955.455 118.933C949.778 121.559 943.249 122.872 935.869 122.872C930.475 122.872 925.507 122.162 920.966 120.743C916.424 119.323 912.024 117.159 907.766 114.249V102.752C912.095 106.159 916.566 108.536 921.178 109.885C925.791 111.304 930.404 112.014 935.017 112.014C943.107 112.014 949.281 110.027 953.539 106.052C957.797 102.078 959.926 96.401 959.926 89.0204ZM930.972 99.1332C925.436 99.1332 920.469 97.9622 916.069 95.6203C911.669 93.2075 908.192 89.872 905.637 85.614C903.082 81.356 901.805 76.3528 901.805 70.6045C901.805 64.8562 903.082 59.8531 905.637 55.5951C908.192 51.337 911.669 48.0371 916.069 45.6952C920.469 43.2823 925.436 42.0759 930.972 42.0759C935.088 42.0759 938.885 42.7146 942.362 43.992C945.91 45.2694 949.068 46.9726 951.836 49.1016C954.675 51.1596 957.052 53.466 958.968 56.0209C960.955 58.5047 962.481 61.0595 963.546 63.6853C964.61 66.2401 965.142 68.582 965.142 70.711C965.142 73.4787 964.326 76.5303 962.694 79.8657C961.062 83.1302 958.72 86.2172 955.668 89.1269C952.688 92.0365 949.104 94.4494 944.917 96.3655C940.73 98.2106 936.081 99.1332 930.972 99.1332ZM935.23 88.914C940.269 88.914 944.881 87.4591 949.068 84.5495C953.326 81.6399 957.123 76.9915 960.459 70.6045C957.123 64.0756 953.326 59.3918 949.068 56.5531C944.881 53.6435 940.269 52.1886 935.23 52.1886C931.114 52.1886 927.601 52.9693 924.691 54.5305C921.782 56.0918 919.546 58.2563 917.985 61.024C916.495 63.7917 915.749 66.9852 915.749 70.6045C915.749 74.1529 916.495 77.3109 917.985 80.0786C919.546 82.8463 921.782 85.0108 924.691 86.5721C927.601 88.1333 931.114 88.914 935.23 88.914Z" fill="black"/>
</svg>
