<svg width="285" height="286" viewBox="0 0 285 286" fill="none" xmlns="http://www.w3.org/2000/svg">
<g id="Topographic 1">
<path id="Vector" d="M273.055 254.691C246.369 271.556 231.981 329.609 242.699 359.288C254.54 392.063 328.584 387.084 337.08 379.092C345.576 371.101 276.117 345.528 285.596 315.371C296.122 281.899 348.98 281.853 347.54 267.56C346.125 253.496 303.903 235.199 273.055 254.691Z" stroke="#00527E" stroke-opacity="0.62" stroke-width="0.542513" stroke-miterlimit="10"/>
<path id="Vector_2" d="M264.697 250.569C233.417 265.266 219.845 335.536 233.633 368.642C249.261 406.138 329.704 392.24 341.645 386.306C351.938 381.198 285.118 346.807 293.106 310.368C301.777 270.777 349.45 264.347 345.889 255.162C342.061 245.314 301.403 233.364 264.697 250.569Z" stroke="#00527E" stroke-opacity="0.62" stroke-width="0.542513" stroke-miterlimit="10"/>
<path id="Vector_3" d="M256.344 246.456C220.52 258.939 207.738 341.454 224.572 377.986C244.02 420.24 330.187 397.276 346.214 393.528C357.864 390.772 294.181 348.132 300.613 305.345C307.478 259.711 350.999 246.327 344.242 242.828C339.199 236.627 299.041 231.566 256.344 246.456Z" stroke="#00527E" stroke-opacity="0.62" stroke-width="0.542513" stroke-miterlimit="10"/>
<path id="Vector_4" d="M247.989 242.301C207.647 252.662 195.656 347.33 215.536 387.306C238.836 434.227 331.81 408.939 350.808 400.717C362.708 395.564 303.301 349.434 308.144 300.327C313.245 248.648 352.031 228.55 342.62 230.451C335.738 228.183 296.669 229.818 247.989 242.301Z" stroke="#00527E" stroke-opacity="0.62" stroke-width="0.542513" stroke-miterlimit="10"/>
<path id="Vector_5" d="M239.633 238.203C194.789 246.47 183.589 353.245 206.448 396.684C233.609 448.307 331.268 414.486 355.35 407.955C368.864 404.28 312.396 350.801 315.633 295.347C318.961 237.624 353.911 213.126 340.946 218.114C332.641 221.301 294.313 228.117 239.633 238.203Z" stroke="#00527E" stroke-opacity="0.62" stroke-width="0.542513" stroke-miterlimit="10"/>
<path id="Vector_6" d="M231.289 234.083C181.935 240.302 171.534 359.146 197.388 406.03C228.435 462.347 330.88 410.2 359.93 415.216C374.983 417.797 321.551 352.183 323.149 290.373C324.813 226.624 355.186 194.924 339.301 205.8C329.415 212.524 291.969 226.45 231.289 234.083Z" stroke="#00527E" stroke-opacity="0.62" stroke-width="0.542513" stroke-miterlimit="10"/>
<path id="Vector_7" d="M222.936 229.965C169.08 234.135 159.486 364.994 188.319 415.378C223.269 476.371 331.239 413.982 364.491 422.387C380.759 426.502 330.698 353.494 330.648 285.327C330.598 215.516 356.195 176.752 337.646 193.396C326.013 203.841 289.624 224.793 222.936 229.965Z" stroke="#00527E" stroke-opacity="0.62" stroke-width="0.542513" stroke-miterlimit="10"/>
<path id="Vector_8" d="M214.576 225.841C156.219 227.99 147.456 370.901 179.252 424.73C218.08 490.398 331.683 417.629 369.055 429.607C386.579 435.22 339.863 354.817 338.157 280.321C336.418 204.484 357.13 158.73 335.994 181.042C322.546 195.225 287.255 223.168 214.576 225.841Z" stroke="#00527E" stroke-opacity="0.62" stroke-width="0.542513" stroke-miterlimit="10"/>
<path id="Vector_9" d="M206.223 221.713C143.363 221.851 135.392 376.777 170.192 434.077C212.914 504.421 332.209 421.217 373.624 436.833C392.447 443.933 349.043 356.164 345.665 275.321C342.244 193.439 358.055 140.787 334.347 168.684C319.053 186.66 284.918 221.547 206.223 221.713Z" stroke="#00527E" stroke-opacity="0.62" stroke-width="0.542513" stroke-miterlimit="10"/>
<path id="Vector_10" d="M197.871 217.595C130.468 215.758 123.353 382.644 161.133 443.416C207.732 518.427 332.803 424.705 378.196 444.032C398.35 452.611 358.224 357.484 353.173 270.303C348.081 182.377 358.998 122.863 332.694 156.308C315.552 178.124 282.566 219.947 197.871 217.595Z" stroke="#00527E" stroke-opacity="0.62" stroke-width="0.542513" stroke-miterlimit="10"/>
<path id="Vector_11" d="M189.515 213.475C117.635 209.608 111.294 388.518 152.069 452.772C202.597 532.448 333.475 428.191 382.763 451.256C404.274 461.305 367.418 358.82 360.686 265.301C353.921 171.322 359.904 104.992 331.045 143.958C312.039 169.613 280.202 218.362 189.515 213.475Z" stroke="#00527E" stroke-opacity="0.62" stroke-width="0.542513" stroke-miterlimit="10"/>
<path id="Vector_12" d="M181.162 209.351C104.772 203.491 99.288 394.388 143.009 462.123C197.447 546.457 334.117 431.645 387.333 458.449C410.208 469.986 376.606 360.162 368.193 260.268C359.764 160.245 360.829 87.1081 329.399 131.576C308.537 161.108 277.84 216.773 181.162 209.351Z" stroke="#00527E" stroke-opacity="0.62" stroke-width="0.542513" stroke-miterlimit="10"/>
<path id="Vector_13" d="M172.808 205.233C91.8989 197.38 87.2555 400.292 133.947 471.462C192.296 560.463 334.825 435.087 391.91 465.685C416.175 478.692 385.81 361.473 375.708 255.277C365.606 149.081 361.753 69.276 327.752 119.209C305.026 152.609 275.477 215.2 172.808 205.233Z" stroke="#00527E" stroke-opacity="0.62" stroke-width="0.542513" stroke-miterlimit="10"/>
<path id="Vector_14" d="M164.453 201.114C79.0253 191.276 75.2224 406.12 124.876 480.818C187.145 574.512 335.565 438.564 396.469 472.909C422.141 487.395 395.005 362.8 383.213 250.275C371.455 138.146 362.684 51.4511 326.095 106.878C301.514 144.126 273.113 213.624 164.453 201.114Z" stroke="#00527E" stroke-opacity="0.62" stroke-width="0.542513" stroke-miterlimit="10"/>
<path id="Vector_15" d="M156.096 196.988C66.1506 185.166 63.3213 411.878 115.838 490.168C182.184 588.345 336.354 441.943 401.061 480.119C428.139 496.093 404.232 364.122 390.743 245.268C377.329 127.085 363.64 33.6113 324.471 94.5125C298.001 135.637 270.732 212.062 156.096 196.988Z" stroke="#00527E" stroke-opacity="0.62" stroke-width="0.542513" stroke-miterlimit="10"/>
<path id="Vector_16" d="M147.741 192.873C53.2768 179.067 51.2796 417.748 106.75 499.501C176.991 602.381 337.094 445.305 405.604 487.32C434.105 504.773 413.41 365.426 398.223 240.225C383.161 115.98 364.546 15.7545 322.798 82.112C294.489 127.149 268.359 210.491 147.741 192.873Z" stroke="#00527E" stroke-opacity="0.62" stroke-width="0.542513" stroke-miterlimit="10"/>
<path id="Vector_17" d="M139.388 188.752C40.3634 172.971 39.2317 423.63 97.6894 508.864C171.825 616.337 337.878 448.781 410.174 494.553C440.131 513.503 422.814 366.743 405.73 235.25C389.212 104.923 365.48 -2.03492 321.152 69.7972C290.978 118.674 265.981 208.933 139.388 188.752Z" stroke="#00527E" stroke-opacity="0.62" stroke-width="0.542513" stroke-miterlimit="10"/>
<path id="Vector_18" d="M131.033 184.629C27.4898 167.075 27.1819 429.51 88.627 518.216C166.657 630.411 338.676 452.199 414.75 501.774C446.097 522.203 431.975 368.067 413.244 230.245C395.029 93.8649 366.411 -19.8449 319.495 57.4344C287.466 110.197 263.567 207.63 131.033 184.629Z" stroke="#00527E" stroke-opacity="0.62" stroke-width="0.542513" stroke-miterlimit="10"/>
<path id="Vector_19" d="M122.677 180.51C14.6159 160.926 15.1485 435.376 79.5643 527.564C161.48 644.424 339.483 455.603 419.318 508.99C452.096 530.907 441.145 369.368 420.749 225.235C400.844 82.8017 367.351 -37.6687 317.847 45.076C283.929 101.761 261.195 206.009 122.677 180.51Z" stroke="#00527E" stroke-opacity="0.62" stroke-width="0.542513" stroke-miterlimit="10"/>
<path id="Vector_20" d="M114.322 176.383C1.74226 154.778 3.09032 441.253 70.5018 536.903C156.312 658.412 340.306 459.018 423.886 516.199C458.103 539.613 450.356 370.716 428.255 220.254C406.619 71.7673 368.149 -55.5556 316.199 32.7373C280.342 93.17 258.823 204.381 114.322 176.383Z" stroke="#00527E" stroke-opacity="0.62" stroke-width="0.542513" stroke-miterlimit="10"/>
<path id="Vector_21" d="M105.97 172.26C-11.1281 148.607 -8.98119 447.142 61.4426 546.256C151.147 672.458 341.133 462.436 428.457 523.383C464.123 548.295 459.488 372.003 435.772 215.185C412.48 60.6725 369.159 -73.3376 314.554 20.3473C276.883 84.739 256.471 202.803 105.97 172.26Z" stroke="#00527E" stroke-opacity="0.62" stroke-width="0.542513" stroke-miterlimit="10"/>
<path id="Vector_22" d="M312.897 7.99267C273.42 76.2975 254.073 201.14 97.6145 168.145C-24.0108 142.49 -21.0068 453.003 52.3711 555.607C145.978 686.485 341.955 465.854 433.024 530.631C506.669 583.026 428.339 -191.769 312.897 7.99267Z" stroke="#00527E" stroke-opacity="0.62" stroke-width="0.542513" stroke-miterlimit="10"/>
</g>
</svg>
