<svg width="56" height="56" viewBox="0 0 56 56" fill="none" xmlns="http://www.w3.org/2000/svg">
<g id="quote-right 1" clip-path="url(#clip0_6_1759)">
<path id="Vector" d="M55.7852 37.584V23.7646H39.6627C39.6663 20.7115 40.8808 17.7845 43.0397 15.6256C45.1986 13.4667 48.1257 12.2522 51.1788 12.2485V5.33885C46.2937 5.34434 41.6102 7.28738 38.1559 10.7417C34.7015 14.196 32.7585 18.8795 32.753 23.7646V46.7969H46.5724C49.0158 46.7969 51.3591 45.8262 53.0869 44.0985C54.8146 42.3707 55.7852 40.0274 55.7852 37.584Z" fill="white" fill-opacity="0.14"/>
<path id="Vector_2" d="M14.3267 46.7969C16.7701 46.7969 19.1134 45.8262 20.8412 44.0985C22.5689 42.3707 23.5396 40.0274 23.5396 37.584V23.7646H7.41698C7.42064 20.7115 8.63512 17.7845 10.794 15.6256C12.9529 13.4667 15.88 12.2522 18.9331 12.2485V5.33885C14.048 5.34434 9.36448 7.28738 5.91016 10.7417C2.45585 14.196 0.512802 18.8795 0.507315 23.7646V46.7969H14.3267Z" fill="white" fill-opacity="0.14"/>
</g>
<defs>
<clipPath id="clip0_6_1759">
<rect width="55.2774" height="55.2774" fill="white" transform="matrix(-1 0 0 -1 55.7852 56.0078)"/>
</clipPath>
</defs>
</svg>
